<svg xmlns="http://www.w3.org/2000/svg" viewBox="0 0 32 32" width="128" height="128" role="img" aria-label="Space Mosquito - side bold">
  <!-- Same side pose, thicker strokes, fewer internals -->
  <g fill="none" stroke="#9b4d4d" stroke-width="1.9" stroke-linecap="round" stroke-linejoin="round">
    <path d="M6.2 14.5 H2.8"/>
    <circle cx="9.2" cy="14.5" r="2.3"/>
    <path d="M8.3 12.3 L6.8 9.2"/>
    <ellipse cx="14.2" cy="15.1" rx="3.1" ry="2.3"/>
    <path d="M17 15 C19.2 12.9 23.2 12.3 27 14.4 C28 15 28.2 16.2 27.1 16.9 C24.2 18.6 19.8 18.1 17.3 16.5"/>
    <path d="M12.8 13.2 C14.5 9 20 7.8 24.2 10.8 C20.8 9.8 16.8 11 13.8 14"/>
    <path d="M12.8 17 L11.2 22.2 L9.8 26"/>
    <path d="M15 17.2 L14.6 22.5 L14 26.2"/>
    <path d="M17 16.8 L18.6 22 L19.8 25.8"/>
  </g>
</svg>
